<svg width="120" height="60" viewBox="0 0 120 60" fill="none" xmlns="http://www.w3.org/2000/svg">
<path d="M2.28882e-05 18.8307H10.2303V23.029C11.7821 19.7801 14.4163 18.1551 18.1334 18.1551C20.2985 18.1551 22.295 18.6934 24.1214 19.7713C25.9471 20.8499 27.3859 22.3376 28.4364 24.2351C29.4866 26.1337 30.0126 28.2565 30.0126 30.6045C30.0126 32.9526 29.4708 35.0764 28.3884 36.974C27.3049 38.8725 25.8504 40.3601 24.0247 41.4378C22.1978 42.5157 20.2501 43.054 18.182 43.054C14.4972 43.054 11.8467 41.43 10.2304 38.18V48.9413L7.73684e-05 50.8715V18.8306L2.28882e-05 18.8307ZM18.4729 33.9818C19.4102 33.0168 19.8788 31.8917 19.8788 30.6045C19.8788 29.2533 19.4018 28.1125 18.4485 27.1789C17.4946 26.2454 16.3716 25.7792 15.0788 25.7792C13.7532 25.7792 12.6222 26.2375 11.6847 27.1542C10.7474 28.0709 10.2788 29.1565 10.2788 30.4111V30.6045C10.2788 31.9558 10.7553 33.0979 11.709 34.0303C12.6625 34.9638 13.7856 35.4301 15.0788 35.4301C16.4038 35.4301 17.5349 34.947 18.4729 33.9818V33.9818Z" fill="#001C4C"/>
<path d="M33.6968 18.8307H43.927V23.7522C44.6705 21.8546 45.6803 20.447 46.9577 19.5303C48.2343 18.6135 49.7289 18.1551 51.4426 18.1551L52.8484 26.0201C49.7771 26.0201 47.5226 26.3511 46.0848 27.0099C44.6461 27.6688 43.927 28.707 43.927 30.1215V42.6677H33.6968V18.8307Z" fill="#001C4C"/>
<path d="M72.0969 37.5044L80.6297 24.6688H72.4362V18.4929H92.6058V23.7037L84.5085 36.4919H92.8002V42.6677H72.0969V37.5044Z" fill="#001C4C"/>
<path d="M101.987 41.4378C99.903 40.3602 98.2783 38.8805 97.115 36.9976C95.9507 35.1158 95.3691 32.9852 95.3691 30.6045C95.3691 28.1598 95.9666 25.9887 97.1636 24.09C98.3587 22.1924 99.9754 20.7294 102.012 19.6991C104.048 18.6699 106.31 18.1551 108.8 18.1551C111.191 18.1551 113.236 18.6778 114.933 19.7228C116.63 20.7689 117.898 22.1845 118.739 23.9694C119.579 25.7554 120 27.7577 120 29.9775C120 30.5559 119.967 30.9749 119.903 31.2317L105.357 33.1135C105.745 34.2396 106.375 35.0516 107.248 35.5505C108.121 36.0494 109.268 36.2984 110.691 36.2984C112.889 36.2984 115.265 35.7362 117.818 34.6092L119.03 41.0755C116.024 42.3952 112.727 43.054 109.139 43.054C106.456 43.054 104.073 42.5157 101.987 41.4378ZM112.484 27.0337C111.967 25.0066 110.74 23.9942 108.8 23.9942C107.636 23.9942 106.715 24.4279 106.036 25.2962C105.357 26.1654 105.001 27.2916 104.969 28.6745L112.485 27.0337L112.484 27.0337Z" fill="#001C4C"/>
<path d="M60.8105 0.0712074L62.9281 4.34148C63.2164 4.92308 63.7737 5.32606 64.4187 5.41928L69.1537 6.10404C69.2591 6.11925 69.3011 6.24812 69.2249 6.32202L65.7985 9.64603C65.3321 10.0986 65.1191 10.7507 65.2293 11.3897L66.0382 16.0832C66.0561 16.1876 65.946 16.2673 65.8518 16.218L61.6167 14.002C61.0399 13.7003 60.3509 13.7003 59.7746 14.002L55.5392 16.218C55.4451 16.2673 55.335 16.1876 55.3531 16.0832L56.1618 11.3897C56.272 10.7506 56.059 10.0985 55.5925 9.64603L52.1662 6.32202C52.0899 6.24818 52.1321 6.11925 52.2373 6.10404L56.9724 5.41928C57.6171 5.32606 58.1745 4.92308 58.4629 4.34148L60.5803 0.0712074C60.6274 -0.0237358 60.7635 -0.0237358 60.8105 0.0712074Z" fill="#FFCE00"/>
<path d="M55.2248 18.4929H65.5034V31.7355C65.5034 33.1062 65.9891 34.471 66.9904 35.412C67.6412 36.0235 68.5501 36.5202 69.7996 36.5719C71.6188 36.6469 73.3172 35.6519 74.323 34.1412L80.6298 24.6688H72.4363V18.493H92.6059V23.7037L84.5086 36.4919H92.8003V42.6677L63.8548 43.054C63.8548 43.054 55.4225 43.7904 55.2248 33.3545V18.4929Z" fill="#001C4C"/>
<path d="M51.4427 18.1551H65.5035V20.4491V26.3985L52.8486 26.0201L48.5054 24.2988L51.4427 18.1551Z" fill="#001C4C"/>
<path d="M10.2304 38.1801V55.8425L0.00232315 60V38.426C0.00232315 38.426 10.2547 38.1558 10.2304 38.1801V38.1801Z" fill="#001C4C"/>
</svg>
